<svg width="40" height="39" viewBox="0 0 40 39" fill="none" xmlns="http://www.w3.org/2000/svg">
<path d="M7.52185 28.1467C5.83136 26.3689 4.92375 24.375 4.92375 21.1429C4.92375 15.4554 8.9563 10.3578 14.8205 7.8374L16.2861 10.0767C10.8126 13.0082 9.74246 16.8123 9.31574 19.2108C10.1971 18.759 11.3509 18.6014 12.4817 18.7054C15.4425 18.9768 17.7764 21.3834 17.7764 24.375C17.7764 25.8834 17.1712 27.3301 16.0939 28.3967C15.0166 29.4633 13.5555 30.0625 12.032 30.0625C11.1895 30.0552 10.3568 29.8821 9.58254 29.5532C8.80824 29.2243 8.10775 28.7461 7.52185 28.1467ZM23.9343 28.1467C22.2439 26.3689 21.3363 24.375 21.3363 21.1429C21.3363 15.4554 25.3688 10.3578 31.233 7.8374L32.6986 10.0767C27.2251 13.0082 26.155 16.8123 25.7282 19.2108C26.6096 18.759 27.7634 18.6014 28.8942 18.7054C31.855 18.9768 34.1889 21.3834 34.1889 24.375C34.1889 25.8834 33.5837 27.3301 32.5064 28.3967C31.4291 29.4633 29.968 30.0625 28.4445 30.0625C27.602 30.0552 26.7693 29.8821 25.995 29.5532C25.2207 29.2243 24.5203 28.7461 23.9343 28.1467Z" fill="#272727"/>
</svg>
