<svg width="25" height="25" viewBox="0 0 25 25" fill="none" xmlns="http://www.w3.org/2000/svg">
<g clip-path="url(#clip0)">
<path fill-rule="evenodd" clip-rule="evenodd" d="M19.2748 7.31055C22.1364 10.2783 22.1456 14.9218 19.2981 17.6633C16.4768 20.3814 12.3805 20.4387 9.51671 17.541L8.42423 18.6334C8.27496 18.6316 8.13231 18.5715 8.02675 18.466C7.92118 18.3604 7.86108 18.2177 7.85925 18.0685L7.73905 15.3376C7.73782 15.2644 7.75134 15.1917 7.7788 15.1238C7.80626 15.0559 7.8471 14.9942 7.89889 14.9424C7.95068 14.8906 8.01236 14.8498 8.08026 14.8223C8.14816 14.7948 8.22089 14.7813 8.29412 14.7825L10.9394 14.9883C11.0888 14.9896 11.2318 15.0496 11.3375 15.1552C11.4431 15.2609 11.5031 15.4039 11.5044 15.5533L10.4989 16.5588C12.8429 18.9354 16.0447 18.9099 18.3555 16.684C20.6855 14.4417 20.6763 10.6438 18.3365 8.21494C16.0313 5.82209 12.3105 5.64673 9.97209 7.78855L9.00972 6.82618C11.8629 4.16817 16.4421 4.37181 19.2748 7.31055Z" fill="#F49E4C"/>
</g>
<defs>
<clipPath id="clip0">
<rect width="17" height="17" fill="white" transform="translate(24.5208 12.5) rotate(135)"/>
</clipPath>
</defs>
</svg>
